<?xml version="1.0" standalone="no"?>
<!DOCTYPE svg PUBLIC "-//W3C//DTD SVG 20010904//EN"
 "http://www.w3.org/TR/2001/REC-SVG-20010904/DTD/svg10.dtd">
<svg version="1.0" xmlns="http://www.w3.org/2000/svg"
 width="150.000000pt" height="150.000000pt" viewBox="0 0 150.000000 150.000000"
 preserveAspectRatio="xMidYMid meet">
<metadata>
Created by potrace 1.11, written by Peter Selinger 2001-2013
</metadata>
<g transform="translate(0.000000,150.000000) scale(0.100000,-0.100000)"
fill="#000000" stroke="none">
<path d="M630 1440 l0 -60 -115 0 -115 0 0 -55 0 -55 -55 0 -55 0 0 -115 0
-115 -60 0 -60 0 0 -115 0 -115 -55 0 -55 0 0 -175 0 -175 55 0 55 0 0 -115 0
-115 60 0 60 0 0 -60 0 -60 115 0 115 0 0 -55 0 -55 230 0 230 0 0 55 0 55
115 0 115 0 0 60 0 60 60 0 60 0 0 115 0 115 55 0 55 0 0 175 0 175 -55 0 -55
0 0 115 0 115 -60 0 -60 0 0 115 0 115 -55 0 -55 0 0 55 0 55 -115 0 -115 0 0
60 0 60 -120 0 -120 0 0 -60z m120 -115 l0 -55 60 0 60 0 0 -60 0 -60 55 0 55
0 0 -345 0 -345 -55 0 -55 0 0 -55 0 -55 -60 0 -60 0 0 -60 0 -60 -115 0 -115
0 0 60 0 60 -115 0 -115 0 0 115 0 115 -60 0 -60 0 0 115 0 115 60 0 60 0 0
115 0 115 55 0 55 0 0 115 0 115 115 0 115 0 0 55 0 55 60 0 60 0 0 -55z"/>
</g>
</svg>
